<svg width="18" height="16" viewBox="0 0 18 16" fill="none" xmlns="http://www.w3.org/2000/svg">
<path d="M11.5685 8.18466C11.5414 8.16049 11.5198 8.13172 11.5051 8.10002C11.4904 8.06833 11.4829 8.03434 11.4829 8C11.4829 7.96566 11.4904 7.93167 11.5051 7.89997C11.5198 7.86828 11.5414 7.83951 11.5685 7.81533L17.3052 2.66551C17.4667 2.52052 17.5947 2.34839 17.6821 2.15895C17.7695 1.96951 17.8144 1.76647 17.8144 1.56142C17.8144 1.35637 17.7695 1.15333 17.6821 0.963891C17.5947 0.77445 17.4667 0.602321 17.3052 0.45733C17.1438 0.312338 16.9522 0.197325 16.7412 0.118856C16.5303 0.0403876 16.3042 0 16.0759 0C15.6149 0 15.1727 0.164506 14.8466 0.45733L9.11282 5.60715C9.0859 5.63153 9.05387 5.65088 9.01858 5.66408C8.98329 5.67729 8.94544 5.68409 8.90722 5.68409C8.86899 5.68409 8.83114 5.67729 8.79585 5.66408C8.76056 5.65088 8.72853 5.63153 8.70161 5.60715L2.96779 0.45733C2.64176 0.164506 2.19956 -3.08539e-09 1.73849 0C1.27741 3.08539e-09 0.835221 0.164506 0.509192 0.45733C0.183162 0.750153 3.43528e-09 1.14731 0 1.56142C-3.43528e-09 1.97554 0.183162 2.37269 0.509192 2.66551L6.24301 7.81533C6.27016 7.83951 6.2917 7.86828 6.3064 7.89997C6.3211 7.93167 6.32867 7.96566 6.32867 8C6.32867 8.03434 6.3211 8.06833 6.3064 8.10002C6.2917 8.13172 6.27016 8.16049 6.24301 8.18466L0.509192 13.3345C0.183162 13.6273 0 14.0245 0 14.4386C0 14.8527 0.183162 15.2498 0.509192 15.5427C0.835221 15.8355 1.27741 16 1.73849 16C2.19956 16 2.64176 15.8355 2.96779 15.5427L8.70161 10.3928C8.72853 10.3685 8.76056 10.3491 8.79585 10.3359C8.83114 10.3227 8.86899 10.3159 8.90722 10.3159C8.94544 10.3159 8.98329 10.3227 9.01858 10.3359C9.05387 10.3491 9.0859 10.3685 9.11282 10.3928L14.8466 15.5427C15.1727 15.8355 15.6149 16 16.0759 16C16.537 16 16.9792 15.8355 17.3052 15.5427C17.6313 15.2498 17.8144 14.8527 17.8144 14.4386C17.8144 14.0245 17.6313 13.6273 17.3052 13.3345L11.5685 8.18466Z" fill="#6B6B6B"/>
</svg>
