<svg width="50" height="50" viewBox="0 0 50 50" fill="none" xmlns="http://www.w3.org/2000/svg">
<path d="M49 25C49 38.2548 38.2548 49 25 49C11.7452 49 1 38.2548 1 25C1 11.7452 11.7452 1 25 1C38.2548 1 49 11.7452 49 25Z" stroke="#F1BF06" stroke-width="2"/>
<path d="M35.1456 21.9101L28.5581 20.9084L25.6054 14.6475C25.3849 14.18 24.6144 14.18 24.3938 14.6475L21.442 20.9084L14.8545 21.9101C14.3135 21.9928 14.0974 22.6478 14.4768 23.0345L19.2626 27.9177L18.1313 34.8211C18.0411 35.3695 18.6295 35.7811 19.1161 35.5118L25.0001 32.2747L30.884 35.5126C31.3661 35.7793 31.9599 35.3758 31.8688 34.822L30.7376 27.9185L35.5233 23.0353C35.9027 22.6478 35.6858 21.9928 35.1456 21.9101V21.9101Z" fill="#F1BF06"/>
</svg>
