<svg width="40" height="41" viewBox="0 0 40 41" fill="none" xmlns="http://www.w3.org/2000/svg">
<circle cx="20" cy="20.8389" r="19" stroke="#6B6B6B" stroke-width="2"/>
<path d="M22.3131 21.0176C22.2895 20.9942 22.2708 20.9663 22.258 20.9357C22.2453 20.905 22.2387 20.8721 22.2387 20.8389C22.2387 20.8056 22.2453 20.7727 22.258 20.7421C22.2708 20.7114 22.2895 20.6835 22.3131 20.6602L27.2993 15.6765C27.4397 15.5361 27.551 15.3696 27.6269 15.1862C27.7028 15.0029 27.7419 14.8064 27.7419 14.608C27.7419 14.4095 27.7028 14.2131 27.6269 14.0297C27.551 13.8464 27.4397 13.6798 27.2993 13.5395C27.159 13.3992 26.9925 13.2879 26.8091 13.2119C26.6258 13.136 26.4293 13.0969 26.2309 13.0969C25.8301 13.0969 25.4458 13.2561 25.1624 13.5395L20.1787 18.5232C20.1553 18.5468 20.1275 18.5655 20.0968 18.5783C20.0661 18.5911 20.0332 18.5977 20 18.5977C19.9668 18.5977 19.9339 18.5911 19.9032 18.5783C19.8725 18.5655 19.8447 18.5468 19.8213 18.5232L14.8376 13.5395C14.5542 13.2561 14.1699 13.0969 13.7691 13.0969C13.3684 13.0969 12.984 13.2561 12.7006 13.5395C12.4173 13.8229 12.2581 14.2072 12.2581 14.608C12.2581 15.0087 12.4173 15.3931 12.7006 15.6765L17.6843 20.6602C17.7079 20.6835 17.7266 20.7114 17.7394 20.7421C17.7522 20.7727 17.7588 20.8056 17.7588 20.8389C17.7588 20.8721 17.7522 20.905 17.7394 20.9357C17.7266 20.9663 17.7079 20.9942 17.6843 21.0176L12.7006 26.0013C12.4173 26.2846 12.2581 26.669 12.2581 27.0697C12.2581 27.4705 12.4173 27.8548 12.7006 28.1382C12.984 28.4216 13.3684 28.5808 13.7691 28.5808C14.1699 28.5808 14.5542 28.4216 14.8376 28.1382L19.8213 23.1545C19.8447 23.1309 19.8725 23.1122 19.9032 23.0994C19.9339 23.0866 19.9668 23.0801 20 23.0801C20.0332 23.0801 20.0661 23.0866 20.0968 23.0994C20.1275 23.1122 20.1553 23.1309 20.1787 23.1545L25.1624 28.1382C25.4458 28.4216 25.8301 28.5808 26.2309 28.5808C26.6316 28.5808 27.016 28.4216 27.2993 28.1382C27.5827 27.8548 27.7419 27.4705 27.7419 27.0697C27.7419 26.669 27.5827 26.2846 27.2993 26.0013L22.3131 21.0176Z" fill="#6B6B6B"/>
</svg>
